<?xml version="1.0" encoding="UTF-8" standalone="no"?>
<!-- Created with Inkscape (http://www.inkscape.org/) -->

<svg
   xmlns:dc="http://purl.org/dc/elements/1.1/"
   xmlns:cc="http://creativecommons.org/ns#"
   xmlns:rdf="http://www.w3.org/1999/02/22-rdf-syntax-ns#"
   xmlns:svg="http://www.w3.org/2000/svg"
   xmlns="http://www.w3.org/2000/svg"
   xmlns:inkscape="http://www.inkscape.org/namespaces/inkscape"
   version="1.1"
   width="183.399"
   height="204.0735"
   id="svg2"
   xml:space="preserve"><metadata
     id="metadata8"><rdf:RDF><cc:Work
         rdf:about=""><dc:format>image/svg+xml</dc:format><dc:type
           rdf:resource="http://purl.org/dc/dcmitype/StillImage" /></cc:Work></rdf:RDF></metadata><defs
     id="defs6" /><g
     transform="matrix(1.25,0,0,-1.25,0,204.0735)"
     id="g10"><g
       id="g12" /><g
       id="g14"><path
         d="m 124.5525,123.9964 c 28.1499,-28.14998 28.1499,-73.79008 0,-101.94003 -28.14998,-28.149955 -73.79007,-28.149955 -101.94003,0 -28.149959,28.14995 -28.149959,73.79005 0,101.94003 28.14996,28.1499 73.79005,28.1499 101.94003,0"
         inkscape:connector-curvature="0"
         id="path16"
         style="fill:#ffffff;fill-opacity:1;fill-rule:nonzero;stroke:none" /><g
         transform="matrix(1,0,0,-1,-214.9175,361.5264)"
         id="g18"><path
           d="m 339.47,237.53 c 28.15,28.1499 28.15,73.79 0,101.94 -28.1499,28.15 -73.79,28.15 -101.94,0 -28.15,-28.15 -28.15,-73.7901 0,-101.94 28.15,-28.15 73.7901,-28.15 101.94,0"
           inkscape:connector-curvature="0"
           id="path20"
           style="fill:none;stroke:#000000;stroke-width:1;stroke-linecap:butt;stroke-linejoin:miter;stroke-miterlimit:4;stroke-opacity:1;stroke-dasharray:none" /></g><g
         transform="matrix(1,0,0,-1,-214.9175,361.5264)"
         id="g22"><path
           d="m 216.9541,288.2383 c 39.2334,25.6826 123.7041,29.9365 144.1826,1.3828"
           inkscape:connector-curvature="0"
           id="path24"
           style="fill:none;stroke:#000000;stroke-width:1;stroke-linecap:butt;stroke-linejoin:miter;stroke-miterlimit:4;stroke-opacity:1;stroke-dasharray:none" /></g><g
         transform="matrix(1,0,0,-1,-214.9175,361.5264)"
         id="g26"><path
           d="m 221.9297,261.6191 c 37.3125,22.5528 121.832,20.5645 134.1406,1.6075"
           inkscape:connector-curvature="0"
           id="path28"
           style="fill:none;stroke:#000000;stroke-width:1;stroke-linecap:butt;stroke-linejoin:miter;stroke-miterlimit:4;stroke-opacity:1;stroke-dasharray:none" /></g><g
         transform="matrix(1,0,0,-1,-214.9175,361.5264)"
         id="g30"><path
           d="m 288.5,216.5 c 29.5215,18.1504 32.8896,124.3945 0.3818,143.9707"
           inkscape:connector-curvature="0"
           id="path32"
           style="fill:none;stroke:#000000;stroke-width:1;stroke-linecap:butt;stroke-linejoin:miter;stroke-miterlimit:4;stroke-opacity:1;stroke-dasharray:none" /></g><g
         transform="matrix(1,0,0,-1,-214.9175,361.5264)"
         id="g34"><path
           d="m 288.5,216.5 c 53.3389,14.208 66.458,119.4609 0.5947,144.1836"
           inkscape:connector-curvature="0"
           id="path36"
           style="fill:none;stroke:#000000;stroke-width:1;stroke-linecap:butt;stroke-linejoin:miter;stroke-miterlimit:4;stroke-opacity:1;stroke-dasharray:none" /></g><g
         transform="matrix(1,0,0,-1,-214.9175,361.5264)"
         id="g38"><path
           d="m 316.5,278 -4.3945,5.4766"
           inkscape:connector-curvature="0"
           id="path40"
           style="fill:none;stroke:#ab1500;stroke-width:1;stroke-linecap:butt;stroke-linejoin:miter;stroke-miterlimit:4;stroke-opacity:1;stroke-dasharray:none" /></g><g
         transform="matrix(1,0,0,-1,-214.9175,361.5264)"
         id="g42"><path
           d="m 324.75,277.5 -12.1201,14.1035"
           inkscape:connector-curvature="0"
           id="path44"
           style="fill:none;stroke:#ab1500;stroke-width:1;stroke-linecap:butt;stroke-linejoin:miter;stroke-miterlimit:4;stroke-opacity:1;stroke-dasharray:none" /></g><g
         transform="matrix(1,0,0,-1,-214.9175,361.5264)"
         id="g46"><path
           d="m 312.75,300.5 19.8359,-23.1309"
           inkscape:connector-curvature="0"
           id="path48"
           style="fill:none;stroke:#ab1500;stroke-width:1;stroke-linecap:butt;stroke-linejoin:miter;stroke-miterlimit:4;stroke-opacity:1;stroke-dasharray:none" /></g><g
         transform="matrix(1,0,0,-1,-214.9175,361.5264)"
         id="g50"><path
           d="m 311.75,309 21.7588,-22.6826"
           inkscape:connector-curvature="0"
           id="path52"
           style="fill:none;stroke:#ab1500;stroke-width:1;stroke-linecap:butt;stroke-linejoin:miter;stroke-miterlimit:4;stroke-opacity:1;stroke-dasharray:none" /></g><g
         transform="matrix(1,0,0,-1,-214.9175,361.5264)"
         id="g54"><path
           d="m 320,308 13.2705,-13.1445"
           inkscape:connector-curvature="0"
           id="path56"
           style="fill:none;stroke:#ab1500;stroke-width:1;stroke-linecap:butt;stroke-linejoin:miter;stroke-miterlimit:4;stroke-opacity:1;stroke-dasharray:none" /></g><g
         transform="matrix(1,0,0,-1,-214.9175,361.5264)"
         id="g58"><path
           d="m 329.75,306.25 3.2168,-3.0664"
           inkscape:connector-curvature="0"
           id="path60"
           style="fill:none;stroke:#ab1500;stroke-width:1;stroke-linecap:butt;stroke-linejoin:miter;stroke-miterlimit:4;stroke-opacity:1;stroke-dasharray:none" /></g><g
         transform="matrix(1,0,0,-1,85.71636,85.40723)"
         id="g62"><text
           id="text64"><tspan
             x="0"
             y="0"
             id="tspan66"
             style="font-size:14px;font-variant:normal;font-weight:bold;writing-mode:lr-tb;fill:#ab1500;fill-opacity:1;fill-rule:nonzero;stroke:none;font-family:Helvetica CY;-inkscape-font-specification:HelveticaNeue-Bold">P</tspan></text>
</g><g
         transform="matrix(1,0,0,-1,99.7528,40.02637)"
         id="g68"><text
           id="text70"><tspan
             x="0"
             y="0"
             id="tspan72"
             style="font-size:14px;font-variant:normal;font-weight:bold;writing-mode:lr-tb;fill:#ab1500;fill-opacity:1;fill-rule:nonzero;stroke:none;font-family:Helvetica CY;-inkscape-font-specification:HelveticaNeue-Bold">A</tspan></text>
</g><g
         transform="matrix(1,0,0,-1,121.1115,66.62402)"
         id="g74"><text
           id="text76"><tspan
             x="0"
             y="0"
             id="tspan78"
             style="font-size:14px;font-variant:normal;font-weight:bold;writing-mode:lr-tb;fill:#ab1500;fill-opacity:1;fill-rule:nonzero;stroke:none;font-family:Helvetica CY;-inkscape-font-specification:HelveticaNeue-Bold">B</tspan></text>
</g><g
         transform="matrix(1,0,0,-1,-214.9175,361.5264)"
         id="g80"><path
           d="M 287.9855,216.2354 C 294.2366,240.5 288.5,345 288.9213,360.7354"
           inkscape:connector-curvature="0"
           id="path82"
           style="fill:none;stroke:#000000;stroke-width:1;stroke-linecap:butt;stroke-linejoin:miter;stroke-miterlimit:4;stroke-opacity:1;stroke-dasharray:none" /></g><g
         transform="matrix(1,0,0,-1,-214.9175,361.5264)"
         id="g84"><path
           d="M 288.5,216.5 C 268,239 255.5,334 288.8818,360.4707"
           inkscape:connector-curvature="0"
           id="path86"
           style="fill:none;stroke:#000000;stroke-width:1;stroke-linecap:butt;stroke-linejoin:miter;stroke-miterlimit:4;stroke-opacity:1;stroke-dasharray:none" /></g><g
         transform="matrix(1,0,0,-1,-214.9175,361.5264)"
         id="g88"><path
           d="m 288.5,217.4658 c -40,4.7901 -60,129.5684 0.3818,143.0049"
           inkscape:connector-curvature="0"
           id="path90"
           style="fill:none;stroke:#000000;stroke-width:1;stroke-linecap:butt;stroke-linejoin:miter;stroke-miterlimit:4;stroke-opacity:1;stroke-dasharray:none" /></g><g
         transform="matrix(1,0,0,-1,-214.9175,361.5264)"
         id="g92"><path
           d="M 288.5,216.9535 C 236,216.2354 196,343 288.8818,360.9242"
           inkscape:connector-curvature="0"
           id="path94"
           style="fill:none;stroke:#000000;stroke-width:1;stroke-linecap:butt;stroke-linejoin:miter;stroke-miterlimit:4;stroke-opacity:1;stroke-dasharray:none" /></g><g
         transform="matrix(1,0,0,-1,-214.9175,361.5264)"
         id="g96"><path
           d="M 288.8818,216.8428 C 356.0703,222.5 390,328.5 289.4766,361.0264"
           inkscape:connector-curvature="0"
           id="path98"
           style="fill:none;stroke:#000000;stroke-width:1;stroke-linecap:butt;stroke-linejoin:miter;stroke-miterlimit:4;stroke-opacity:1;stroke-dasharray:none" /></g><g
         transform="matrix(1,0,0,-1,-214.9175,361.5264)"
         id="g100"><path
           d="m 236,240 c 22.5,15.5 88.75,15.5 107.5,1.5"
           inkscape:connector-curvature="0"
           id="path102"
           style="fill:none;stroke:#000000;stroke-width:1;stroke-linecap:butt;stroke-linejoin:miter;stroke-miterlimit:4;stroke-opacity:1;stroke-dasharray:none" /></g><g
         transform="matrix(1,0,0,-1,-214.9175,361.5264)"
         id="g104"><path
           d="m 255,225 c 19,9 51.2366,9 69.75,2"
           inkscape:connector-curvature="0"
           id="path106"
           style="fill:none;stroke:#000000;stroke-width:1;stroke-linecap:butt;stroke-linejoin:miter;stroke-miterlimit:4;stroke-opacity:1;stroke-dasharray:none" /></g><g
         transform="matrix(1,0,0,-1,82.59503,154.2588)"
         id="g108"><text
           id="text110"><tspan
             x="0"
             y="0"
             id="tspan112"
             style="font-size:8px;font-variant:normal;font-weight:bold;writing-mode:lr-tb;fill:#012baa;fill-opacity:1;fill-rule:nonzero;stroke:none;font-family:Helvetica CY;-inkscape-font-specification:HelveticaNeue-Bold">1</tspan></text>
</g><g
         transform="matrix(1,0,0,-1,95.30648,154.2588)"
         id="g114"><text
           id="text116"><tspan
             x="0"
             y="0"
             id="tspan118"
             style="font-size:8px;font-variant:normal;font-weight:bold;writing-mode:lr-tb;fill:#012baa;fill-opacity:1;fill-rule:nonzero;stroke:none;font-family:Helvetica CY;-inkscape-font-specification:HelveticaNeue-Bold">2</tspan></text>
</g><g
         transform="matrix(1,0,0,-1,106.0998,154.2588)"
         id="g120"><text
           id="text122"><tspan
             x="0"
             y="0"
             id="tspan124"
             style="font-size:8px;font-variant:normal;font-weight:bold;writing-mode:lr-tb;fill:#012baa;fill-opacity:1;fill-rule:nonzero;stroke:none;font-family:Helvetica CY;-inkscape-font-specification:HelveticaNeue-Bold">3</tspan></text>
</g><g
         transform="matrix(1,0,0,-1,117.1684,154.2588)"
         id="g126"><text
           id="text128"><tspan
             x="0"
             y="0"
             id="tspan130"
             style="font-size:8px;font-variant:normal;font-weight:bold;writing-mode:lr-tb;fill:#012baa;fill-opacity:1;fill-rule:nonzero;stroke:none;font-family:Helvetica CY;-inkscape-font-specification:HelveticaNeue-Bold">4</tspan></text>
</g><g
         transform="matrix(1,0,0,-1,56.18647,154.2588)"
         id="g132"><text
           id="text134"><tspan
             x="0 4.448"
             y="0"
             id="tspan136"
             style="font-size:8px;font-variant:normal;font-weight:bold;writing-mode:lr-tb;fill:#012baa;fill-opacity:1;fill-rule:nonzero;stroke:none;font-family:Helvetica CY;-inkscape-font-specification:HelveticaNeue-Bold">18</tspan></text>
</g><g
         transform="matrix(1,0,0,-1,43.92256,154.2588)"
         id="g138"><text
           id="text140"><tspan
             x="0 4.448"
             y="0"
             id="tspan142"
             style="font-size:8px;font-variant:normal;font-weight:bold;writing-mode:lr-tb;fill:#012baa;fill-opacity:1;fill-rule:nonzero;stroke:none;font-family:Helvetica CY;-inkscape-font-specification:HelveticaNeue-Bold">17</tspan></text>
</g><g
         transform="matrix(1,0,0,-1,33.33239,154.2588)"
         id="g144"><text
           id="text146"><tspan
             x="0 4.448"
             y="0"
             id="tspan148"
             style="font-size:8px;font-variant:normal;font-weight:bold;writing-mode:lr-tb;fill:#012baa;fill-opacity:1;fill-rule:nonzero;stroke:none;font-family:Helvetica CY;-inkscape-font-specification:HelveticaNeue-Bold">16</tspan></text>
</g><g
         transform="matrix(1,0,0,-1,20.58247,154.2588)"
         id="g150"><text
           id="text152"><tspan
             x="0 4.448"
             y="0"
             id="tspan154"
             style="font-size:8px;font-variant:normal;font-weight:bold;writing-mode:lr-tb;fill:#012baa;fill-opacity:1;fill-rule:nonzero;stroke:none;font-family:Helvetica CY;-inkscape-font-specification:HelveticaNeue-Bold">15</tspan></text>
</g><g
         transform="matrix(1,0,0,-1,-214.9175,361.5264)"
         id="g156"><path
           d="m 299.5,209.617 -4.6667,16.845"
           inkscape:connector-curvature="0"
           id="path158"
           style="fill:none;stroke:#686868;stroke-width:1;stroke-linecap:butt;stroke-linejoin:miter;stroke-miterlimit:4;stroke-opacity:1;stroke-dasharray:none" /></g><g
         transform="matrix(1,0,0,-1,-214.9175,361.5264)"
         id="g160"><path
           d="m 311.75,209.617 -9.3567,16.845"
           inkscape:connector-curvature="0"
           id="path162"
           style="fill:none;stroke:#686868;stroke-width:1;stroke-linecap:butt;stroke-linejoin:miter;stroke-miterlimit:4;stroke-opacity:1;stroke-dasharray:none" /></g><g
         transform="matrix(1,0,0,-1,-214.9175,361.5264)"
         id="g164"><path
           d="m 321.854,209.617 -11.5979,16.114"
           inkscape:connector-curvature="0"
           id="path166"
           style="fill:none;stroke:#686868;stroke-width:1;stroke-linecap:butt;stroke-linejoin:miter;stroke-miterlimit:4;stroke-opacity:1;stroke-dasharray:none" /></g><g
         transform="matrix(1,0,0,-1,-214.9175,361.5264)"
         id="g168"><path
           d="M 333.6452,209.617 317.9493,224.25"
           inkscape:connector-curvature="0"
           id="path170"
           style="fill:none;stroke:#686868;stroke-width:1;stroke-linecap:butt;stroke-linejoin:miter;stroke-miterlimit:4;stroke-opacity:1;stroke-dasharray:none" /></g><g
         transform="matrix(1,0,0,-1,-214.9175,361.5264)"
         id="g172"><path
           d="m 278.8333,209.617 6.9848,16.845"
           inkscape:connector-curvature="0"
           id="path174"
           style="fill:none;stroke:#686868;stroke-width:1;stroke-linecap:butt;stroke-linejoin:miter;stroke-miterlimit:4;stroke-opacity:1;stroke-dasharray:none" /></g><g
         transform="matrix(1,0,0,-1,-214.9175,361.5264)"
         id="g176"><path
           d="m 266.8333,209.617 12,16.845"
           inkscape:connector-curvature="0"
           id="path178"
           style="fill:none;stroke:#686868;stroke-width:1;stroke-linecap:butt;stroke-linejoin:miter;stroke-miterlimit:4;stroke-opacity:1;stroke-dasharray:none" /></g><g
         transform="matrix(1,0,0,-1,-214.9175,361.5264)"
         id="g180"><path
           d="m 255,209.617 15.1419,16.114"
           inkscape:connector-curvature="0"
           id="path182"
           style="fill:none;stroke:#686868;stroke-width:1;stroke-linecap:butt;stroke-linejoin:miter;stroke-miterlimit:4;stroke-opacity:1;stroke-dasharray:none" /></g><g
         transform="matrix(1,0,0,-1,-214.9175,361.5264)"
         id="g184"><path
           d="m 243.1667,209.617 18.6666,14.633"
           inkscape:connector-curvature="0"
           id="path186"
           style="fill:none;stroke:#686868;stroke-width:1;stroke-linecap:butt;stroke-linejoin:miter;stroke-miterlimit:4;stroke-opacity:1;stroke-dasharray:none" /></g><g
         transform="matrix(1,0,0,-1,78.07981,116.7184)"
         id="g188"><text
           id="text190"><tspan
             x="0 4.448"
             y="0"
             id="tspan192"
             style="font-size:8px;font-variant:normal;font-weight:bold;writing-mode:lr-tb;fill:#012baa;fill-opacity:1;fill-rule:nonzero;stroke:none;font-family:Helvetica CY;-inkscape-font-specification:HelveticaNeue-Bold">19</tspan></text>
</g><g
         transform="matrix(1,0,0,-1,93.08247,118.4287)"
         id="g194"><text
           id="text196"><tspan
             x="0 4.448"
             y="0"
             id="tspan198"
             style="font-size:8px;font-variant:normal;font-weight:bold;writing-mode:lr-tb;fill:#012baa;fill-opacity:1;fill-rule:nonzero;stroke:none;font-family:Helvetica CY;-inkscape-font-specification:HelveticaNeue-Bold">20</tspan></text>
</g><g
         transform="matrix(1,0,0,-1,106.4365,120.3938)"
         id="g200"><text
           id="text202"><tspan
             x="0 4.448"
             y="0"
             id="tspan204"
             style="font-size:8px;font-variant:normal;font-weight:bold;writing-mode:lr-tb;fill:#012baa;fill-opacity:1;fill-rule:nonzero;stroke:none;font-family:Helvetica CY;-inkscape-font-specification:HelveticaNeue-Bold">21</tspan></text>
</g><path
         d="m 96.63447,82.20661 c -0.99185,0 -1.7959,0.89485 -1.7959,1.9987 0,1.10385 0.80405,1.9987 1.7959,1.9987 0.99184,0 1.79589,-0.89485 1.79589,-1.9987 0,-1.10385 -0.80405,-1.9987 -1.79589,-1.9987 z"
         inkscape:connector-curvature="0"
         id="path206"
         style="fill:#ab1500;fill-opacity:1;fill-rule:nonzero;stroke:none" /></g></g></svg>